Coordinates
version=1
nRows=51
nColumns=8
inDegrees=yes

# SIMM Motion File Header:
name Coordinates
datacolumns 8
datarows 51
otherdata 1
range 1.03500000 1.08500000

Units are S.I. units (second, meters, Newtons, ...)
Angles are in degrees.

endheader
time	pelvis_tilt	pelvis_tx	pelvis_ty	hip_flexion_r	knee_angle_r	knee_angle_pat_r	ankle_angle_r
      1.03500000	     -0.00820044	      0.02092229	      1.08542810	      1.63698717	    -14.06170900	    -14.06170476	     12.95302239
      1.03600000	     -0.03074131	      0.02078662	      1.08536155	      1.58447346	    -14.03254094	    -14.03253671	     12.97991266
      1.03700000	     -0.05325624	      0.02065077	      1.08529417	      1.53186489	    -14.00322682	    -14.00322259	     13.00496158
      1.03800000	     -0.07572528	      0.02051459	      1.08522534	      1.47909482	    -13.97366606	    -13.97366182	     13.02637361
      1.03900000	     -0.09813407	      0.02037815	      1.08515533	      1.42618261	    -13.94395414	    -13.94394991	     13.04468815
      1.04000000	     -0.12050462	      0.02024155	      1.08508459	      1.37318402	    -13.91415620	    -13.91415197	     13.06117737
      1.04100000	     -0.14272622	      0.02010457	      1.08501221	      1.31994615	    -13.88428084	    -13.88427661	     13.07448275
      1.04200000	     -0.16481271	      0.01996733	      1.08493874	      1.26652560	    -13.85443211	    -13.85442788	     13.08667873
      1.04300000	     -0.18673832	      0.01982988	      1.08486442	      1.21291564	    -13.82469491	    -13.82469067	     13.09941196
      1.04400000	     -0.20847585	      0.01969219	      1.08478908	      1.15908425	    -13.79508809	    -13.79508386	     13.11277334
      1.04500000	     -0.22988063	      0.01955419	      1.08471250	      1.10488652	    -13.76578146	    -13.76577722	     13.12960089
      1.04600000	     -0.25113943	      0.01941606	      1.08463537	      1.05052808	    -13.73660651	    -13.73660228	     13.14794901
      1.04700000	     -0.27193330	      0.01927757	      1.08455684	      0.99565891	    -13.70784333	    -13.70783909	     13.17215448
      1.04800000	     -0.29240024	      0.01913887	      1.08447738	      0.94042080	    -13.67932748	    -13.67932324	     13.20009476
      1.04900000	     -0.31264710	      0.01900002	      1.08439731	      0.88493355	    -13.65097466	    -13.65097043	     13.23051752
      1.05000000	     -0.33251532	      0.01886092	      1.08431618	      0.82899894	    -13.62282972	    -13.62282549	     13.26421497
      1.05100000	     -0.35203821	      0.01872161	      1.08423404	      0.77263769	    -13.59480968	    -13.59480544	     13.30005472
      1.05200000	     -0.37118763	      0.01858206	      1.08415066	      0.71578187	    -13.56681590	    -13.56681166	     13.33656422
      1.05300000	     -0.39021798	      0.01844242	      1.08406684	      0.65875699	    -13.53878715	    -13.53878291	     13.37250996
      1.05400000	     -0.40892495	      0.01830258	      1.08398185	      0.60126959	    -13.51065054	    -13.51064630	     13.40669203
      1.05500000	     -0.42741921	      0.01816260	      1.08389609	      0.54346174	    -13.48237033	    -13.48236610	     13.43848959
      1.05600000	     -0.44572273	      0.01802251	      1.08380965	      0.48536659	    -13.45396122	    -13.45395698	     13.46815141
      1.05700000	     -0.46361292	      0.01788222	      1.08372193	      0.42665119	    -13.42525884	    -13.42525460	     13.49343033
      1.05800000	     -0.48123445	      0.01774182	      1.08363355	      0.36754848	    -13.39641219	    -13.39640796	     13.51696510
      1.05900000	     -0.49857258	      0.01760132	      1.08354448	      0.30803720	    -13.36741337	    -13.36740913	     13.53865999
      1.06000000	     -0.51561643	      0.01746073	      1.08345482	      0.24811701	    -13.33830638	    -13.33830214	     13.55958713
      1.06100000	     -0.53202759	      0.01731997	      1.08336408	      0.18733625	    -13.30903194	    -13.30902770	     13.58053481
      1.06200000	     -0.54815643	      0.01717915	      1.08327291	      0.12617787	    -13.27970631	    -13.27970208	     13.60210998
      1.06300000	     -0.56361614	      0.01703820	      1.08318080	      0.06413510	    -13.25030819	    -13.25030395	     13.62647061
      1.06400000	     -0.57868883	      0.01689720	      1.08308816	      0.00158225	    -13.22088288	    -13.22087864	     13.65296214
      1.06500000	     -0.59336462	      0.01675614	      1.08299497	     -0.06149347	    -13.19143197	    -13.19142774	     13.68171960
      1.06600000	     -0.60709979	      0.01661498	      1.08290038	     -0.12583231	    -13.16188455	    -13.16188032	     13.71667935
      1.06700000	     -0.62082332	      0.01647381	      1.08280577	     -0.19018677	    -13.13233594	    -13.13233171	     13.75171585
      1.06800000	     -0.63404510	      0.01633262	      1.08271024	     -0.25525304	    -13.10264149	    -13.10263725	     13.78962169
      1.06900000	     -0.64672543	      0.01619141	      1.08261372	     -0.32108740	    -13.07278966	    -13.07278542	     13.83062384
      1.07000000	     -0.65940576	      0.01605019	      1.08251720	     -0.38692177	    -13.04293782	    -13.04293359	     13.87162599
      1.07100000	     -0.67141695	      0.01590899	      1.08241899	     -0.45380069	    -13.01265699	    -13.01265275	     13.91516264
      1.07200000	     -0.68320239	      0.01576782	      1.08232005	     -0.52106004	    -12.98216449	    -12.98216025	     13.95920056
      1.07300000	     -0.69478536	      0.01562668	      1.08222032	     -0.58868861	    -12.95139940	    -12.95139517	     14.00259116
      1.07400000	     -0.70612805	      0.01548558	      1.08211965	     -0.65675534	    -12.92031084	    -12.92030661	     14.04521360
      1.07500000	     -0.71727225	      0.01534453	      1.08201811	     -0.72520078	    -12.88889027	    -12.88888604	     14.08580322
      1.07600000	     -0.72824804	      0.01520353	      1.08191585	     -0.79396696	    -12.85718918	    -12.85718494	     14.12465602
      1.07700000	     -0.73890011	      0.01506261	      1.08181227	     -0.86332800	    -12.82499111	    -12.82498687	     14.15975364
      1.07800000	     -0.74933128	      0.01492175	      1.08170792	     -0.93305899	    -12.79255176	    -12.79254752	     14.19293378
      1.07900000	     -0.75954013	      0.01478095	      1.08160282	     -1.00316232	    -12.75986957	    -12.75986533	     14.22418418
      1.08000000	     -0.76958508	      0.01464019	      1.08149724	     -1.07351882	    -12.72707042	    -12.72706619	     14.25460982
      1.08100000	     -0.77917487	      0.01449953	      1.08139045	     -1.14455106	    -12.69402795	    -12.69402371	     14.28372534
      1.08200000	     -0.78836570	      0.01435894	      1.08128282	     -1.21613182	    -12.66090327	    -12.66089904	     14.31328878
      1.08300000	     -0.79730009	      0.01421841	      1.08117467	     -1.28805469	    -12.62776021	    -12.62775597	     14.34353438
      1.08400000	     -0.80580686	      0.01407796	      1.08106569	     -1.36053801	    -12.59462028	    -12.59461604	     14.37529666
      1.08500000	     -0.81377780	      0.01393762	      1.08095565	     -1.43370476	    -12.56156687	    -12.56156263	     14.40999392
